<svg width="30" height="22" viewBox="0 0 30 22" fill="none" xmlns="http://www.w3.org/2000/svg">
<g opacity="0.8">
<path d="M26.2408 2.43857C23.0052 8.07619 19.1087 14.9479 18.3675 15.9486C17.565 17.0193 16.5226 17.89 15.3227 18.4918C14.1228 19.0936 12.7983 19.41 11.4539 19.416C5.76539 19.416 1.28537 13.8648 3.39679 7.93069C4.46287 4.93686 7.57814 2.43994 11.3032 2.43994H26.2656M11.3156 0.210693C6.70979 0.210693 2.56715 3.13864 1.2107 7.5079C-1.06941 14.8504 4.39788 21.5793 11.4429 21.5793C13.134 21.5846 14.8026 21.1943 16.3134 20.4399C17.8242 19.6856 19.1348 18.5885 20.1388 17.2375C21.1592 15.8648 26.5754 6.3219 28.9315 2.15305C29.0431 1.95489 29.1007 1.73126 29.0986 1.50426C29.0965 1.27725 29.0349 1.0547 28.9197 0.858582C28.8045 0.662464 28.6398 0.499555 28.4418 0.385935C28.2439 0.272316 28.0195 0.211915 27.7908 0.210693H11.3156Z" fill="url(#paint0_linear_1901_289)"/>
</g>
<defs>
<linearGradient id="paint0_linear_1901_289" x1="3.79639" y1="2.5525" x2="22.4858" y2="13.4227" gradientUnits="userSpaceOnUse">
<stop stop-color="#FFCF52"/>
<stop offset="0.15" stop-color="#F2B30F"/>
<stop offset="0.54" stop-color="#FDA700"/>
<stop offset="0.83" stop-color="#FF414C"/>
<stop offset="1" stop-color="#E1232E"/>
</linearGradient>
</defs>
</svg>
