<svg width="19" height="15" viewBox="0 0 19 15" fill="none" xmlns="http://www.w3.org/2000/svg">
<path d="M11.66 2.19078C13.0345 2.19041 14.3531 2.73128 15.3264 3.69474C16.2998 4.6582 16.8485 5.96559 16.8521 7.33012C16.8584 8.00805 16.7283 8.6804 16.4694 9.30776C16.2106 9.93511 15.8281 10.5048 15.3445 10.9835C14.8609 11.4622 14.2859 11.8402 13.6532 12.0954C13.0205 12.3505 12.3429 12.4777 11.66 12.4695H2.67231C4.91923 8.52848 7.05969 4.85105 7.47727 4.28825C7.9505 3.62774 8.57865 3.09159 9.30742 2.72615C10.0362 2.3607 10.8437 2.17695 11.66 2.19078ZM11.66 0.227837C10.5336 0.213882 9.42037 0.469724 8.41472 0.973679C7.40907 1.47763 6.54063 2.21485 5.88299 3.12284C5.22758 4.0041 1.85788 9.90117 0.204147 12.8126C0.110087 12.978 0.0613413 13.1649 0.0627749 13.3548C0.0642084 13.5446 0.115771 13.7308 0.212316 13.8947C0.308861 14.0586 0.447014 14.1945 0.61299 14.2889C0.778967 14.3832 0.966964 14.4327 1.15822 14.4324H11.66C13.5574 14.4324 15.3771 13.6841 16.7188 12.3522C18.0605 11.0203 18.8142 9.21377 18.8142 7.33012C18.8142 5.44648 18.0605 3.63999 16.7188 2.30805C15.3771 0.976111 13.5574 0.227837 11.66 0.227837Z" fill="#392F4F"/>
</svg>
